<?xml version="1.0" encoding="UTF-8" standalone="no"?>
<svg
   xmlns:dc="http://purl.org/dc/elements/1.1/"
   xmlns:cc="http://creativecommons.org/ns#"
   xmlns:rdf="http://www.w3.org/1999/02/22-rdf-syntax-ns#"
   xmlns:svg="http://www.w3.org/2000/svg"
   xmlns="http://www.w3.org/2000/svg"
   xmlns:sodipodi="http://sodipodi.sourceforge.net/DTD/sodipodi-0.dtd"
   xmlns:inkscape="http://www.inkscape.org/namespaces/inkscape"
   width="11in"
   height="2in"
   viewBox="0 0 279.4 50.8"
   version="1.1"
   id="svg8"
   inkscape:version="1.0.2 (e86c8708, 2021-01-15)"
   sodipodi:docname="sparkles.svg">
  <defs
     id="defs2">
    <inkscape:path-effect
       effect="bspline"
       id="path-effect841"
       is_visible="true"
       lpeversion="1"
       weight="33.333333"
       steps="2"
       helper_size="0"
       apply_no_weight="true"
       apply_with_weight="true"
       only_selected="false" />
    <inkscape:path-effect
       effect="bspline"
       id="path-effect835"
       is_visible="true"
       lpeversion="1"
       weight="33.333333"
       steps="2"
       helper_size="0"
       apply_no_weight="true"
       apply_with_weight="true"
       only_selected="false" />
  </defs>
  <sodipodi:namedview
     id="base"
     pagecolor="#ffffff"
     bordercolor="#666666"
     borderopacity="1.0"
     inkscape:pageopacity="0.0"
     inkscape:pageshadow="2"
     inkscape:zoom="0.53250952"
     inkscape:cx="384.26481"
     inkscape:cy="384.14867"
     inkscape:document-units="mm"
     inkscape:current-layer="layer1"
     inkscape:document-rotation="0"
     showgrid="false"
     inkscape:window-width="1440"
     inkscape:window-height="741"
     inkscape:window-x="-1"
     inkscape:window-y="25"
     inkscape:window-maximized="0"
     units="in"
     height="3in" />
  <metadata
     id="metadata5">
    <rdf:RDF>
      <cc:Work
         rdf:about="">
        <dc:format>image/svg+xml</dc:format>
        <dc:type
           rdf:resource="http://purl.org/dc/dcmitype/StillImage" />
        <dc:title></dc:title>
      </cc:Work>
    </rdf:RDF>
  </metadata>
  <g
     inkscape:label="Layer 1"
     inkscape:groupmode="layer"
     id="layer1">
    <path
       style="fill:#ffb380;stroke:#f2844b;stroke-width:0.124955;stroke-linecap:butt;stroke-linejoin:miter;stroke-miterlimit:4;stroke-dasharray:none;stroke-opacity:1"
       d="m 9.0512731,25.613992 1.2215449,-4.413384 0.938801,4.337898 3.451382,1.021261 -3.488585,0.784136 -0.864393,3.971175 -1.0727249,-3.895693 -3.429074,-1.123805 3.243049,-0.681588"
       id="path845"
       sodipodi:nodetypes="ccccccccc" />
    <path
       style="fill:#ffb380;stroke:#f2844b;stroke-width:0.0707623;stroke-linecap:butt;stroke-linejoin:miter;stroke-miterlimit:4;stroke-dasharray:none;stroke-opacity:1"
       d="m 23.991072,37.606911 1.776537,-1.787351 -0.711875,2.420705 1.394064,1.572361 -1.897211,-0.697679 -1.485044,1.681113 0.528297,-2.245197 -1.355722,-1.615777 1.750954,0.671825"
       id="path845-3"
       sodipodi:nodetypes="ccccccccc" />
    <path
       style="fill:#ffb380;stroke:#f2844b;stroke-width:0.0807227;stroke-linecap:butt;stroke-linejoin:miter;stroke-miterlimit:4;stroke-dasharray:none;stroke-opacity:1"
       d="m 37.413006,29.287743 -0.813924,-2.925307 1.936098,2.117077 2.171203,-0.646388 -1.592654,1.679151 0.857032,2.549006 -1.860667,-1.819884 -2.193338,0.580567 1.49625,-1.534222"
       id="path845-6"
       sodipodi:nodetypes="ccccccccc" />
    <path
       style="fill:#ffb380;stroke:#f2844b;stroke-width:0.124955;stroke-linecap:butt;stroke-linejoin:miter;stroke-miterlimit:4;stroke-dasharray:none;stroke-opacity:1"
       d="m 54.239879,36.886507 -0.011,-4.601615 2.061179,3.871449 3.581133,-0.07221 -3.1334,1.813774 0.234864,4.069057 -2.071123,-3.406863 -3.587213,-0.03285 2.925542,-1.640729"
       id="path845-63"
       sodipodi:nodetypes="ccccccccc" />
    <path
       style="fill:#ffb380;stroke:#f2844b;stroke-width:0.157273;stroke-linecap:butt;stroke-linejoin:miter;stroke-miterlimit:4;stroke-dasharray:none;stroke-opacity:1"
       d="m 67.139455,20.748262 3.669229,-4.174525 -0.927496,5.131864 3.826638,2.761469 -4.748483,-0.831396 -3.007624,3.869123 0.545408,-4.719126 -3.748995,-2.861386 4.391323,0.823977"
       id="path845-3-7"
       sodipodi:nodetypes="ccccccccc" />
    <path
       style="fill:#ffb380;stroke:#f2844b;stroke-width:0.0707623;stroke-linecap:butt;stroke-linejoin:miter;stroke-miterlimit:4;stroke-dasharray:none;stroke-opacity:1"
       d="m 82.244795,38.162156 1.776537,-1.787351 -0.711873,2.420709 1.394061,1.572361 -1.897213,-0.697679 -1.485042,1.681109 0.528296,-2.245198 -1.355719,-1.615773 1.750953,0.671822"
       id="path845-3-72"
       sodipodi:nodetypes="ccccccccc" />
    <path
       style="fill:#ffb380;stroke:#f2844b;stroke-width:0.124955;stroke-linecap:butt;stroke-linejoin:miter;stroke-miterlimit:4;stroke-dasharray:none;stroke-opacity:1"
       d="m 100.49362,25.622288 1.22155,-4.413384 0.9388,4.337898 3.45138,1.021261 -3.48858,0.784136 -0.8644,3.971175 -1.07272,-3.895693 -3.429077,-1.123805 3.243047,-0.681588"
       id="path845-36"
       sodipodi:nodetypes="ccccccccc" />
    <path
       style="fill:#ffb380;stroke:#f2844b;stroke-width:0.0707623;stroke-linecap:butt;stroke-linejoin:miter;stroke-miterlimit:4;stroke-dasharray:none;stroke-opacity:1"
       d="m 115.43342,37.615207 1.77654,-1.787351 -0.71188,2.420705 1.39407,1.572361 -1.89721,-0.697679 -1.48505,1.681113 0.5283,-2.245197 -1.35572,-1.615777 1.75095,0.671825"
       id="path845-3-2"
       sodipodi:nodetypes="ccccccccc" />
    <path
       style="fill:#ffb380;stroke:#f2844b;stroke-width:0.0807227;stroke-linecap:butt;stroke-linejoin:miter;stroke-miterlimit:4;stroke-dasharray:none;stroke-opacity:1"
       d="m 128.85536,29.296039 -0.81393,-2.925307 1.9361,2.117077 2.1712,-0.646388 -1.59265,1.679151 0.85703,2.549006 -1.86067,-1.819884 -2.19333,0.580567 1.49625,-1.534222"
       id="path845-6-6"
       sodipodi:nodetypes="ccccccccc" />
    <path
       style="fill:#ffb380;stroke:#f2844b;stroke-width:0.124955;stroke-linecap:butt;stroke-linejoin:miter;stroke-miterlimit:4;stroke-dasharray:none;stroke-opacity:1"
       d="m 145.68223,36.894803 -0.011,-4.601615 2.06118,3.871449 3.58113,-0.07221 -3.1334,1.813774 0.23486,4.069057 -2.07112,-3.406863 -3.58721,-0.03285 2.92554,-1.640729"
       id="path845-63-8"
       sodipodi:nodetypes="ccccccccc" />
    <path
       style="fill:#ffb380;stroke:#f2844b;stroke-width:0.157273;stroke-linecap:butt;stroke-linejoin:miter;stroke-miterlimit:4;stroke-dasharray:none;stroke-opacity:1"
       d="m 158.5818,20.756558 3.66923,-4.174525 -0.92749,5.131864 3.82664,2.761469 -4.74849,-0.831396 -3.00762,3.869123 0.54541,-4.719126 -3.749,-2.861386 4.39132,0.823977"
       id="path845-3-7-5"
       sodipodi:nodetypes="ccccccccc" />
    <path
       style="fill:#ffb380;stroke:#f2844b;stroke-width:0.0707623;stroke-linecap:butt;stroke-linejoin:miter;stroke-miterlimit:4;stroke-dasharray:none;stroke-opacity:1"
       d="m 173.68714,38.170452 1.77654,-1.787351 -0.71187,2.420709 1.39406,1.572361 -1.89721,-0.697679 -1.48504,1.681109 0.52829,-2.245198 -1.35572,-1.615773 1.75096,0.671822"
       id="path845-3-72-1"
       sodipodi:nodetypes="ccccccccc" />
    <path
       style="fill:#ffb380;stroke:#f2844b;stroke-width:0.124955;stroke-linecap:butt;stroke-linejoin:miter;stroke-miterlimit:4;stroke-dasharray:none;stroke-opacity:1"
       d="m 191.22195,25.871542 1.22154,-4.413384 0.93881,4.337898 3.45138,1.021261 -3.48859,0.784136 -0.86439,3.971175 -1.07273,-3.895693 -3.42907,-1.123805 3.24305,-0.681588"
       id="path845-631"
       sodipodi:nodetypes="ccccccccc" />
    <path
       style="fill:#ffb380;stroke:#f2844b;stroke-width:0.0707623;stroke-linecap:butt;stroke-linejoin:miter;stroke-miterlimit:4;stroke-dasharray:none;stroke-opacity:1"
       d="m 206.16175,37.864461 1.77654,-1.787351 -0.71188,2.420705 1.39407,1.572361 -1.89721,-0.697679 -1.48505,1.681113 0.5283,-2.245197 -1.35572,-1.615777 1.75095,0.671825"
       id="path845-3-4"
       sodipodi:nodetypes="ccccccccc" />
    <path
       style="fill:#ffb380;stroke:#f2844b;stroke-width:0.0807227;stroke-linecap:butt;stroke-linejoin:miter;stroke-miterlimit:4;stroke-dasharray:none;stroke-opacity:1"
       d="m 219.58368,29.545293 -0.81392,-2.925307 1.9361,2.117077 2.1712,-0.646388 -1.59265,1.679151 0.85703,2.549006 -1.86067,-1.819884 -2.19334,0.580567 1.49625,-1.534222"
       id="path845-6-4"
       sodipodi:nodetypes="ccccccccc" />
    <path
       style="fill:#ffb380;stroke:#f2844b;stroke-width:0.124955;stroke-linecap:butt;stroke-linejoin:miter;stroke-miterlimit:4;stroke-dasharray:none;stroke-opacity:1"
       d="m 236.41056,37.144057 -0.011,-4.601615 2.06118,3.871449 3.58113,-0.07221 -3.1334,1.813774 0.23486,4.069057 -2.07112,-3.406863 -3.58721,-0.03285 2.92554,-1.640729"
       id="path845-63-5"
       sodipodi:nodetypes="ccccccccc" />
    <path
       style="fill:#ffb380;stroke:#f2844b;stroke-width:0.157273;stroke-linecap:butt;stroke-linejoin:miter;stroke-miterlimit:4;stroke-dasharray:none;stroke-opacity:1"
       d="m 249.31013,21.005812 3.66923,-4.174525 -0.92749,5.131864 3.82663,2.761469 -4.74848,-0.831396 -3.00762,3.869123 0.54541,-4.719126 -3.749,-2.861386 4.39132,0.823977"
       id="path845-3-7-9"
       sodipodi:nodetypes="ccccccccc" />
    <path
       style="fill:#ffb380;stroke:#f2844b;stroke-width:0.0707623;stroke-linecap:butt;stroke-linejoin:miter;stroke-miterlimit:4;stroke-dasharray:none;stroke-opacity:1"
       d="m 264.41547,38.419706 1.77654,-1.787351 -0.71187,2.420709 1.39406,1.572361 -1.89721,-0.697679 -1.48505,1.681109 0.5283,-2.245198 -1.35572,-1.615773 1.75095,0.671822"
       id="path845-3-72-2"
       sodipodi:nodetypes="ccccccccc" />
  </g>
</svg>
